<?xml version="1.0" standalone="no"?>
<!DOCTYPE svg PUBLIC "-//W3C//DTD SVG 20010904//EN"
 "http://www.w3.org/TR/2001/REC-SVG-20010904/DTD/svg10.dtd">
<svg version="1.0" xmlns="http://www.w3.org/2000/svg"
 width="616.000000pt" height="616.000000pt" viewBox="0 0 616.000000 616.000000"
 preserveAspectRatio="xMidYMid meet">
<metadata>
Created by potrace 1.11, written by Peter Selinger 2001-2013
</metadata>
<g transform="translate(0.000000,616.000000) scale(0.100000,-0.100000)"
fill="#000000" stroke="none">
<path d="M954 5621 c-114 -46 -112 -43 -384 -481 -182 -293 -226 -361 -239
-377 -6 -7 -11 -15 -11 -19 0 -4 -20 -37 -45 -75 -25 -38 -45 -71 -45 -74 0
-3 -5 -11 -10 -18 -28 -33 -97 -151 -131 -223 -39 -82 -66 -166 -77 -239 -8
-52 -7 -261 1 -300 3 -16 9 -43 12 -60 19 -95 89 -248 153 -335 164 -221 389
-332 672 -334 149 -1 219 9 325 46 75 25 225 99 225 110 0 4 5 8 11 8 13 0 78
51 142 112 l50 47 70 -65 c57 -52 206 -157 227 -160 3 0 25 -9 50 -21 70 -32
143 -53 230 -67 82 -14 254 -14 325 -2 193 34 401 142 532 276 l42 42 40 -41
c116 -119 309 -227 466 -263 70 -15 98 -18 205 -22 265 -10 509 82 704 265
l61 57 65 -60 c74 -69 157 -126 248 -169 67 -32 171 -69 212 -75 14 -1 46 -7
72 -12 70 -14 274 -7 353 12 80 18 85 20 180 66 67 32 86 44 149 93 56 44 186
192 186 212 0 4 8 19 18 33 42 62 92 202 110 307 3 22 6 87 6 145 1 171 -19
263 -82 395 -37 77 -122 218 -134 223 -5 2 -8 7 -8 12 0 8 -40 73 -173 283
-32 51 -61 99 -64 107 -4 8 -15 24 -25 34 -10 11 -18 24 -18 28 0 5 -8 21 -19
36 -10 15 -34 52 -53 82 -19 30 -49 78 -66 105 -17 28 -36 55 -42 62 -5 7 -10
14 -10 17 0 14 -116 184 -141 206 -49 45 -57 49 -118 70 -60 20 -71 20 -2133
19 -1897 -1 -2076 -3 -2114 -18z"/>
<path d="M524 2796 c-3 -8 -3 -20 1 -26 3 -5 1 -10 -5 -10 -6 0 -8 -5 -5 -10
4 -6 6 -79 6 -163 -1 -84 -2 -161 -2 -172 0 -11 1 -370 1 -797 1 -427 -1 -782
-4 -787 -4 -5 -2 -12 2 -15 5 -3 9 -19 10 -36 0 -17 6 -38 13 -46 6 -8 9 -14
5 -14 -9 0 44 -81 68 -105 37 -36 80 -62 131 -79 47 -15 237 -16 2355 -14
l2305 3 55 28 c95 48 162 139 175 238 3 24 6 456 5 959 -1 871 -1 962 1 978 1
4 1 24 0 44 l-1 36 -36 -10 c-141 -38 -393 -46 -532 -15 -35 8 -65 11 -67 7
-2 -4 -5 -74 -5 -156 -1 -82 -1 -156 -1 -164 0 -8 0 -80 0 -160 0 -80 0 -152
0 -160 0 -8 0 -82 0 -165 0 -82 0 -158 0 -167 0 -16 -21 -18 -267 -18 -147 -1
-274 -1 -282 -1 -8 0 -53 0 -100 0 -47 0 -119 1 -160 0 -41 0 -113 0 -160 0
-47 0 -94 0 -105 0 -16 0 -1361 -1 -1400 0 -5 0 -48 0 -95 0 -47 0 -119 1
-160 0 -41 0 -113 0 -160 0 -47 0 -92 0 -100 0 -8 0 -203 0 -432 1 -420 1
-425 1 -419 34 1 5 2 75 1 155 -1 80 0 164 1 186 0 22 1 45 1 50 0 6 -1 137
-2 292 l-1 282 -22 -5 c-12 -3 -32 -7 -44 -10 -13 -2 -35 -7 -50 -10 -49 -10
-286 -12 -343 -3 -30 5 -73 12 -95 15 -22 4 -48 10 -58 16 -12 6 -19 5 -23 -6z"/>
</g>
</svg>
